<svg data-v-fde0c5aa="" xmlns="http://www.w3.org/2000/svg" viewBox="0 0 300 300" class="iconAbove"><!----><defs data-v-fde0c5aa=""><linearGradient data-v-fde0c5aa="" gradientTransform="rotate(25)" id="6f577a93-4401-4e38-bfb7-55959b526f15" x1="0%" y1="0%" x2="100%" y2="0%"><stop data-v-fde0c5aa="" offset="0%" stop-color="#395ECA" stop-opacity="1"></stop><stop data-v-fde0c5aa="" offset="100%" stop-color="#848BD8" stop-opacity="1"></stop></linearGradient></defs><rect data-v-fde0c5aa="" fill="url(#6f577a93-4401-4e38-bfb7-55959b526f15)" x="0" y="0" width="300px" height="300px" class="logo-background-square"></rect><defs data-v-fde0c5aa=""><!----></defs><g data-v-fde0c5aa="" id="21f4c89d-1ad0-4399-ac6c-cfd7571a3eef" fill="#ffffff" transform="matrix(3.7164094254213045,0,0,3.7164094254213045,16.766723782162245,167.41766508026296)"><path d="M4.16 14.11L4.16 14.11Q2.65 14.11 1.76 13.42L1.76 13.42L1.76 13.42Q0.87 12.73 0.87 11.56L0.87 11.56L0.87 11.13L0.87 11.13Q0.87 11.06 0.92 11.01L0.92 11.01L0.92 11.01Q0.97 10.96 1.04 10.96L1.04 10.96L1.41 10.96L1.41 10.96Q1.48 10.96 1.53 11.01L1.53 11.01L1.53 11.01Q1.58 11.06 1.58 11.13L1.58 11.13L1.58 11.52L1.58 11.52Q1.58 12.39 2.30 12.92L2.30 12.92L2.30 12.92Q3.01 13.45 4.23 13.45L4.23 13.45L4.23 13.45Q5.39 13.45 6.00 12.97L6.00 12.97L6.00 12.97Q6.61 12.49 6.61 11.63L6.61 11.63L6.61 11.63Q6.61 11.12 6.34 10.73L6.34 10.73L6.34 10.73Q6.08 10.35 5.50 10.01L5.50 10.01L5.50 10.01Q4.93 9.67 3.91 9.24L3.91 9.24L3.91 9.24Q2.81 8.78 2.25 8.47L2.25 8.47L2.25 8.47Q1.69 8.16 1.36 7.69L1.36 7.69L1.36 7.69Q1.02 7.22 1.02 6.48L1.02 6.48L1.02 6.48Q1.02 5.33 1.81 4.71L1.81 4.71L1.81 4.71Q2.60 4.09 4.00 4.09L4.00 4.09L4.00 4.09Q5.54 4.09 6.41 4.79L6.41 4.79L6.41 4.79Q7.27 5.49 7.27 6.66L7.27 6.66L7.27 6.96L7.27 6.96Q7.27 7.03 7.22 7.08L7.22 7.08L7.22 7.08Q7.17 7.13 7.10 7.13L7.10 7.13L6.69 7.13L6.69 7.13Q6.62 7.13 6.57 7.08L6.57 7.08L6.57 7.08Q6.52 7.03 6.52 6.96L6.52 6.96L6.52 6.71L6.52 6.71Q6.52 5.82 5.85 5.29L5.85 5.29L5.85 5.29Q5.18 4.75 3.96 4.75L3.96 4.75L3.96 4.75Q2.90 4.75 2.32 5.19L2.32 5.19L2.32 5.19Q1.75 5.63 1.75 6.45L1.75 6.45L1.75 6.45Q1.75 7.01 2.02 7.36L2.02 7.36L2.02 7.36Q2.28 7.71 2.78 7.97L2.78 7.97L2.78 7.97Q3.28 8.23 4.31 8.65L4.31 8.65L4.31 8.65Q5.35 9.07 5.99 9.46L5.99 9.46L5.99 9.46Q6.62 9.84 6.99 10.36L6.99 10.36L6.99 10.36Q7.35 10.88 7.35 11.61L7.35 11.61L7.35 11.61Q7.35 12.74 6.51 13.43L6.51 13.43L6.51 13.43Q5.67 14.11 4.16 14.11L4.16 14.11ZM9.87 5.53L9.87 5.53Q9.59 5.53 9.41 5.36L9.41 5.36L9.41 5.36Q9.23 5.18 9.23 4.91L9.23 4.91L9.23 4.91Q9.23 4.65 9.41 4.48L9.41 4.48L9.41 4.48Q9.59 4.31 9.87 4.31L9.87 4.31L9.87 4.31Q10.15 4.31 10.33 4.48L10.33 4.48L10.33 4.48Q10.51 4.65 10.51 4.91L10.51 4.91L10.51 4.91Q10.51 5.18 10.33 5.36L10.33 5.36L10.33 5.36Q10.15 5.53 9.87 5.53L9.87 5.53ZM9.67 14L9.67 14Q9.60 14 9.55 13.95L9.55 13.95L9.55 13.95Q9.51 13.90 9.51 13.83L9.51 13.83L9.51 7.11L9.51 7.11Q9.51 7.04 9.55 6.99L9.55 6.99L9.55 6.99Q9.60 6.94 9.67 6.94L9.67 6.94L10.08 6.94L10.08 6.94Q10.15 6.94 10.20 6.99L10.20 6.99L10.20 6.99Q10.25 7.04 10.25 7.11L10.25 7.11L10.25 13.83L10.25 13.83Q10.25 13.90 10.20 13.95L10.20 13.95L10.20 13.95Q10.15 14 10.08 14L10.08 14L9.67 14ZM19.78 6.85L19.78 6.85Q20.80 6.85 21.42 7.46L21.42 7.46L21.42 7.46Q22.04 8.08 22.04 9.16L22.04 9.16L22.04 13.83L22.04 13.83Q22.04 13.90 21.99 13.95L21.99 13.95L21.99 13.95Q21.94 14 21.87 14L21.87 14L21.48 14L21.48 14Q21.41 14 21.36 13.95L21.36 13.95L21.36 13.95Q21.31 13.90 21.31 13.83L21.31 13.83L21.31 9.30L21.31 9.30Q21.31 8.47 20.83 7.99L20.83 7.99L20.83 7.99Q20.34 7.50 19.57 7.50L19.57 7.50L19.57 7.50Q18.76 7.50 18.26 7.98L18.26 7.98L18.26 7.98Q17.77 8.46 17.77 9.27L17.77 9.27L17.77 13.83L17.77 13.83Q17.77 13.90 17.72 13.95L17.72 13.95L17.72 13.95Q17.67 14 17.60 14L17.60 14L17.21 14L17.21 14Q17.14 14 17.09 13.95L17.09 13.95L17.09 13.95Q17.04 13.90 17.04 13.83L17.04 13.83L17.04 9.30L17.04 9.30Q17.04 8.47 16.56 7.99L16.56 7.99L16.56 7.99Q16.09 7.50 15.32 7.50L15.32 7.50L15.32 7.50Q14.49 7.50 14.01 7.98L14.01 7.98L14.01 7.98Q13.52 8.46 13.52 9.27L13.52 9.27L13.52 13.83L13.52 13.83Q13.52 13.90 13.47 13.95L13.47 13.95L13.47 13.95Q13.43 14 13.36 14L13.36 14L12.95 14L12.95 14Q12.88 14 12.83 13.95L12.83 13.95L12.83 13.95Q12.78 13.90 12.78 13.83L12.78 13.83L12.78 7.11L12.78 7.11Q12.78 7.04 12.83 6.99L12.83 6.99L12.83 6.99Q12.88 6.94 12.95 6.94L12.95 6.94L13.36 6.94L13.36 6.94Q13.43 6.94 13.47 6.99L13.47 6.99L13.47 6.99Q13.52 7.04 13.52 7.11L13.52 7.11L13.52 7.71L13.52 7.71Q13.52 7.74 13.55 7.76L13.55 7.76L13.55 7.76Q13.58 7.77 13.59 7.74L13.59 7.74L13.59 7.74Q13.89 7.29 14.38 7.07L14.38 7.07L14.38 7.07Q14.88 6.85 15.51 6.85L15.51 6.85L15.51 6.85Q16.24 6.85 16.77 7.16L16.77 7.16L16.77 7.16Q17.29 7.48 17.56 8.05L17.56 8.05L17.56 8.05Q17.58 8.11 17.63 8.06L17.63 8.06L17.63 8.06Q17.92 7.46 18.48 7.15L18.48 7.15L18.48 7.15Q19.04 6.85 19.78 6.85L19.78 6.85ZM29.67 8.69L29.67 8.69Q29.82 9.28 29.82 10.46L29.82 10.46L29.82 10.46Q29.82 11.09 29.79 11.49L29.79 11.49L29.79 11.49Q29.76 11.90 29.68 12.22L29.68 12.22L29.68 12.22Q29.46 13.09 28.79 13.60L28.79 13.60L28.79 13.60Q28.13 14.11 27.16 14.11L27.16 14.11L27.16 14.11Q26.54 14.11 26.06 13.87L26.06 13.87L26.06 13.87Q25.58 13.62 25.27 13.16L25.27 13.16L25.27 13.16Q25.26 13.13 25.23 13.15L25.23 13.15L25.23 13.15Q25.20 13.16 25.20 13.19L25.20 13.19L25.20 16.58L25.20 16.58Q25.20 16.65 25.15 16.70L25.15 16.70L25.15 16.70Q25.10 16.74 25.03 16.74L25.03 16.74L24.63 16.74L24.63 16.74Q24.56 16.74 24.51 16.70L24.51 16.70L24.51 16.70Q24.46 16.65 24.46 16.58L24.46 16.58L24.46 7.11L24.46 7.11Q24.46 7.04 24.51 6.99L24.51 6.99L24.51 6.99Q24.56 6.94 24.63 6.94L24.63 6.94L25.03 6.94L25.03 6.94Q25.10 6.94 25.15 6.99L25.15 6.99L25.15 6.99Q25.20 7.04 25.20 7.11L25.20 7.11L25.20 7.77L25.20 7.77Q25.20 7.81 25.22 7.82L25.22 7.82L25.22 7.82Q25.24 7.83 25.27 7.80L25.27 7.80L25.27 7.80Q25.58 7.34 26.06 7.08L26.06 7.08L26.06 7.08Q26.54 6.83 27.16 6.83L27.16 6.83L27.16 6.83Q28.11 6.83 28.77 7.34L28.77 7.34L28.77 7.34Q29.43 7.84 29.67 8.69L29.67 8.69ZM28.85 12.18L28.85 12.18Q28.98 11.89 29.03 11.55L29.03 11.55L29.03 11.55Q29.08 11.21 29.08 10.47L29.08 10.47L29.08 10.47Q29.08 9.77 29.04 9.44L29.04 9.44L29.04 9.44Q28.99 9.11 28.90 8.81L28.90 8.81L28.90 8.81Q28.74 8.22 28.25 7.85L28.25 7.85L28.25 7.85Q27.76 7.49 27.08 7.49L27.08 7.49L27.08 7.49Q26.42 7.49 25.98 7.85L25.98 7.85L25.98 7.85Q25.54 8.22 25.38 8.81L25.38 8.81L25.38 8.81Q25.28 9.07 25.25 9.40L25.25 9.40L25.25 9.40Q25.21 9.73 25.21 10.46L25.21 10.46L25.21 10.46Q25.21 11.20 25.26 11.54L25.26 11.54L25.26 11.54Q25.30 11.89 25.40 12.17L25.40 12.17L25.40 12.17Q25.54 12.74 25.98 13.10L25.98 13.10L25.98 13.10Q26.43 13.45 27.08 13.45L27.08 13.45L27.08 13.45Q27.73 13.45 28.21 13.10L28.21 13.10L28.21 13.10Q28.69 12.74 28.85 12.18L28.85 12.18ZM32.16 14L32.16 14Q32.09 14 32.04 13.95L32.04 13.95L32.04 13.95Q31.99 13.90 31.99 13.83L31.99 13.83L31.99 4.37L31.99 4.37Q31.99 4.30 32.04 4.25L32.04 4.25L32.04 4.25Q32.09 4.20 32.16 4.20L32.16 4.20L32.56 4.20L32.56 4.20Q32.63 4.20 32.68 4.25L32.68 4.25L32.68 4.25Q32.73 4.30 32.73 4.37L32.73 4.37L32.73 13.83L32.73 13.83Q32.73 13.90 32.68 13.95L32.68 13.95L32.68 13.95Q32.63 14 32.56 14L32.56 14L32.16 14ZM34.78 16.80L34.78 16.80Q34.73 16.80 34.71 16.75L34.71 16.75L34.71 16.75Q34.68 16.70 34.68 16.63L34.68 16.63L34.68 16.32L34.68 16.32Q34.68 16.25 34.71 16.20L34.71 16.20L34.71 16.20Q34.73 16.16 34.78 16.16L34.78 16.16L34.87 16.16L34.87 16.16Q35.41 16.14 35.71 15.98L35.71 15.98L35.71 15.98Q36.01 15.82 36.22 15.39L36.22 15.39L36.22 15.39Q36.44 14.97 36.74 14.04L36.74 14.04L36.74 14.04Q36.76 13.99 36.74 13.96L36.74 13.96L34.36 7.14L34.36 7.14Q34.34 7.11 34.34 7.07L34.34 7.07L34.34 7.07Q34.34 6.94 34.50 6.94L34.50 6.94L34.92 6.94L34.92 6.94Q35.06 6.94 35.10 7.08L35.10 7.08L37.09 12.92L37.09 12.92Q37.10 12.95 37.13 12.95L37.13 12.95L37.13 12.95Q37.16 12.95 37.17 12.92L37.17 12.92L39.09 7.08L39.09 7.08Q39.13 6.94 39.27 6.94L39.27 6.94L39.70 6.94L39.70 6.94Q39.79 6.94 39.83 6.99L39.83 6.99L39.83 6.99Q39.87 7.04 39.84 7.14L39.84 7.14L37.21 14.71L37.21 14.71Q36.89 15.62 36.61 16.06L36.61 16.06L36.61 16.06Q36.33 16.49 35.94 16.65L35.94 16.65L35.94 16.65Q35.56 16.80 34.87 16.80L34.87 16.80L34.78 16.80ZM40.99 9.93L40.99 9.93Q40.92 9.93 40.87 9.88L40.87 9.88L40.87 9.88Q40.82 9.83 40.82 9.76L40.82 9.76L40.82 9.44L40.82 9.44Q40.82 9.37 40.87 9.32L40.87 9.32L40.87 9.32Q40.92 9.27 40.99 9.27L40.99 9.27L44.95 9.27L44.95 9.27Q45.02 9.27 45.07 9.32L45.07 9.32L45.07 9.32Q45.12 9.37 45.12 9.44L45.12 9.44L45.12 9.76L45.12 9.76Q45.12 9.83 45.07 9.88L45.07 9.88L45.07 9.88Q45.02 9.93 44.95 9.93L44.95 9.93L40.99 9.93ZM50.02 14.13L50.02 14.13Q49.07 14.13 48.34 13.75L48.34 13.75L48.34 13.75Q47.61 13.37 47.21 12.68L47.21 12.68L47.21 12.68Q46.82 11.98 46.82 11.09L46.82 11.09L46.82 7.10L46.82 7.10Q46.82 6.20 47.21 5.52L47.21 5.52L47.21 5.52Q47.61 4.84 48.34 4.47L48.34 4.47L48.34 4.47Q49.07 4.09 50.02 4.09L50.02 4.09L50.02 4.09Q50.96 4.09 51.69 4.46L51.69 4.46L51.69 4.46Q52.42 4.83 52.81 5.50L52.81 5.50L52.81 5.50Q53.21 6.17 53.21 7.06L53.21 7.06L53.21 7.06Q53.21 7.13 53.16 7.17L53.16 7.17L53.16 7.17Q53.12 7.22 53.05 7.22L53.05 7.22L52.64 7.24L52.64 7.24Q52.47 7.24 52.47 7.15L52.47 7.15L52.47 7.07L52.47 7.07Q52.47 6.02 51.80 5.38L51.80 5.38L51.80 5.38Q51.13 4.75 50.02 4.75L50.02 4.75L50.02 4.75Q48.90 4.75 48.23 5.38L48.23 5.38L48.23 5.38Q47.56 6.02 47.56 7.07L47.56 7.07L47.56 11.13L47.56 11.13Q47.56 12.18 48.24 12.82L48.24 12.82L48.24 12.82Q48.92 13.47 50.02 13.47L50.02 13.47L50.02 13.47Q51.13 13.47 51.80 12.82L51.80 12.82L51.80 12.82Q52.47 12.18 52.47 11.13L52.47 11.13L52.47 11.13Q52.47 10.98 52.64 10.98L52.64 10.98L53.05 10.99L53.05 10.99Q53.21 10.99 53.21 11.06L53.21 11.06L53.21 11.13L53.21 11.13Q53.21 12.01 52.81 12.69L52.81 12.69L52.81 12.69Q52.42 13.37 51.69 13.75L51.69 13.75L51.69 13.75Q50.96 14.13 50.02 14.13L50.02 14.13ZM58.02 13.47L58.02 13.47Q58.70 13.45 59.19 13.15L59.19 13.15L59.19 13.15Q59.68 12.85 59.92 12.32L59.92 12.32L59.92 12.32Q60.00 12.18 60.14 12.24L60.14 12.24L60.40 12.33L60.40 12.33Q60.56 12.40 60.49 12.56L60.49 12.56L60.49 12.56Q60.19 13.27 59.53 13.69L59.53 13.69L59.53 13.69Q58.87 14.11 57.96 14.11L57.96 14.11L57.96 14.11Q56.99 14.11 56.33 13.64L56.33 13.64L56.33 13.64Q55.66 13.16 55.40 12.33L55.40 12.33L55.40 12.33Q55.20 11.69 55.20 10.46L55.20 10.46L55.20 10.46Q55.20 9.77 55.22 9.42L55.22 9.42L55.22 9.42Q55.24 9.07 55.31 8.78L55.31 8.78L55.31 8.78Q55.54 7.90 56.23 7.36L56.23 7.36L56.23 7.36Q56.92 6.83 57.93 6.83L57.93 6.83L57.93 6.83Q59.05 6.83 59.74 7.42L59.74 7.42L59.74 7.42Q60.42 8.01 60.61 9.03L60.61 9.03L60.61 9.03Q60.66 9.31 60.68 9.61L60.68 9.61L60.68 9.61Q60.70 9.91 60.70 10.53L60.70 10.53L60.70 10.53Q60.70 10.71 60.54 10.71L60.54 10.71L55.99 10.71L55.99 10.71Q55.93 10.71 55.93 10.77L55.93 10.77L55.93 10.77Q55.93 11.65 56.00 11.97L56.00 11.97L56.00 11.97Q56.15 12.64 56.69 13.05L56.69 13.05L56.69 13.05Q57.22 13.47 58.02 13.47L58.02 13.47ZM56.03 8.95L56.03 8.95Q55.96 9.21 55.93 10.05L55.93 10.05L55.93 10.05Q55.93 10.11 55.99 10.11L55.99 10.11L59.89 10.11L59.89 10.11Q59.95 10.11 59.95 10.05L59.95 10.05L59.95 10.05Q59.95 9.34 59.88 8.99L59.88 8.99L59.88 8.99Q59.72 8.32 59.21 7.90L59.21 7.90L59.21 7.90Q58.69 7.49 57.93 7.49L57.93 7.49L57.93 7.49Q57.18 7.49 56.67 7.89L56.67 7.89L56.67 7.89Q56.17 8.29 56.03 8.95L56.03 8.95ZM65.52 6.89L65.52 6.89Q65.95 6.89 66.32 7.04L66.32 7.04L66.32 7.04Q66.44 7.10 66.40 7.25L66.40 7.25L66.29 7.66L66.29 7.66Q66.25 7.83 66.08 7.76L66.08 7.76L66.08 7.76Q65.77 7.66 65.41 7.67L65.41 7.67L65.41 7.67Q64.62 7.69 64.11 8.27L64.11 8.27L64.11 8.27Q63.60 8.85 63.60 9.69L63.60 9.69L63.60 13.83L63.60 13.83Q63.60 13.90 63.55 13.95L63.55 13.95L63.55 13.95Q63.50 14 63.43 14L63.43 14L63.03 14L63.03 14Q62.96 14 62.91 13.95L62.91 13.95L62.91 13.95Q62.86 13.90 62.86 13.83L62.86 13.83L62.86 7.11L62.86 7.11Q62.86 7.04 62.91 6.99L62.91 6.99L62.91 6.99Q62.96 6.94 63.03 6.94L63.03 6.94L63.43 6.94L63.43 6.94Q63.50 6.94 63.55 6.99L63.55 6.99L63.55 6.99Q63.60 7.04 63.60 7.11L63.60 7.11L63.60 8.04L63.60 8.04Q63.60 8.08 63.62 8.09L63.62 8.09L63.62 8.09Q63.64 8.09 63.66 8.05L63.66 8.05L63.66 8.05Q63.95 7.50 64.42 7.20L64.42 7.20L64.42 7.20Q64.89 6.89 65.52 6.89L65.52 6.89ZM70.83 7.41L70.83 7.41Q70.83 7.48 70.78 7.52L70.78 7.52L70.78 7.52Q70.73 7.57 70.66 7.57L70.66 7.57L69.05 7.57L69.05 7.57Q68.99 7.57 68.99 7.63L68.99 7.63L68.99 12.04L68.99 12.04Q68.99 12.75 69.31 13.04L69.31 13.04L69.31 13.04Q69.64 13.33 70.35 13.33L70.35 13.33L70.64 13.33L70.64 13.33Q70.71 13.33 70.76 13.38L70.76 13.38L70.76 13.38Q70.81 13.43 70.81 13.50L70.81 13.50L70.81 13.82L70.81 13.82Q70.81 13.99 70.64 13.99L70.64 13.99L70.25 14L70.25 14Q69.29 14 68.78 13.62L68.78 13.62L68.78 13.62Q68.28 13.24 68.26 12.24L68.26 12.24L68.26 7.63L68.26 7.63Q68.26 7.57 68.21 7.57L68.21 7.57L67.40 7.57L67.40 7.57Q67.33 7.57 67.28 7.52L67.28 7.52L67.28 7.52Q67.23 7.48 67.23 7.41L67.23 7.41L67.23 7.11L67.23 7.11Q67.23 7.04 67.28 6.99L67.28 6.99L67.28 6.99Q67.33 6.94 67.40 6.94L67.40 6.94L68.21 6.94L68.21 6.94Q68.26 6.94 68.26 6.89L68.26 6.89L68.26 5.32L68.26 5.32Q68.26 5.25 68.31 5.20L68.31 5.20L68.31 5.20Q68.36 5.15 68.43 5.15L68.43 5.15L68.82 5.15L68.82 5.15Q68.89 5.15 68.94 5.20L68.94 5.20L68.94 5.20Q68.99 5.25 68.99 5.32L68.99 5.32L68.99 6.89L68.99 6.89Q68.99 6.94 69.05 6.94L69.05 6.94L70.66 6.94L70.66 6.94Q70.73 6.94 70.78 6.99L70.78 6.99L70.78 6.99Q70.83 7.04 70.83 7.11L70.83 7.11L70.83 7.41Z"></path></g><defs data-v-fde0c5aa=""><!----></defs><g data-v-fde0c5aa="" id="54c54392-c9f7-46e4-89d1-4cc844b5b712" stroke="none" fill="#ffffff" transform="matrix(4.0519458985755135,0,0,4.0519458985755135,85.16886562279178,52.549058633309144)"><path d="M12.289 5.343v19.9L1 13.954V5.343h11.289m1-1H0v10.026l13.289 13.289V4.343zM31 5.343v8.612L19.711 25.243v-19.9H31m1-1H18.711v23.315L32 14.369V4.343z"></path></g><!----></svg>